<?xml version="1.0" encoding="utf-8"?>
<!-- Generator: Adobe Illustrator 22.0.0, SVG Export Plug-In . SVG Version: 6.00 Build 0)  -->
<svg version="1.1" xmlns="http://www.w3.org/2000/svg" xmlns:xlink="http://www.w3.org/1999/xlink" x="0px" y="0px"
	 viewBox="0 0 2500 1600" style="enable-background:new 0 0 2500 1600;" xml:space="preserve">
<style type="text/css">
	.st0{fill-rule:evenodd;clip-rule:evenodd;fill:#23243B;}
	.st1{fill-rule:evenodd;clip-rule:evenodd;fill:#2B3256;}
	.st2{fill-rule:evenodd;clip-rule:evenodd;fill:#F0AF4B;}
	.st3{fill-rule:evenodd;clip-rule:evenodd;fill:#DA8D2F;}
	.st4{fill-rule:evenodd;clip-rule:evenodd;fill:#89CFE3;}
	.st5{fill-rule:evenodd;clip-rule:evenodd;fill:#45A4D7;}
	.st6{fill-rule:evenodd;clip-rule:evenodd;fill:#D6167C;}
	.st7{fill-rule:evenodd;clip-rule:evenodd;fill:#BD146C;}
	.st8{fill-rule:evenodd;clip-rule:evenodd;fill:#FFFFFF;}
	.st9{fill-rule:evenodd;clip-rule:evenodd;fill:#55BAA8;}
	.st10{fill-rule:evenodd;clip-rule:evenodd;fill:#E78C46;}
	.st11{fill-rule:evenodd;clip-rule:evenodd;fill:#692964;}
	.st12{fill-rule:evenodd;clip-rule:evenodd;fill:#4E2549;}
	.st13{fill-rule:evenodd;clip-rule:evenodd;fill:#024C98;}
	.st14{fill-rule:evenodd;clip-rule:evenodd;fill:#E5348B;}
	.st15{fill-rule:evenodd;clip-rule:evenodd;fill:#EA5164;}
	.st16{fill-rule:evenodd;clip-rule:evenodd;fill:#E22E41;}
	.st17{fill-rule:evenodd;clip-rule:evenodd;fill:#80C9C4;}
</style>
<g id="Background">
	<rect class="st0" width="2500" height="1600"/>
</g>
<g id="Illustration">
	<g>
		<g>
			<path class="st1" d="M2500,185.4v203c-238.9,76.1-603.4,223.6-376.7,360.4c323.8,195.4-248.9,275.4-812.5,295.8
				c-917.8,33.4,793,463.6,1166.3-192.5c9.1-16,16.7-28.1,22.9-37v119.6c-35.2,133.2-95,314.3-95,314.3l-73.4-103.1
				c-96.9-34.9-56.8-2.5-113.9,35.8c-281.7,189-1233.3,225.8-1530.5,73.4C18.9,912.3,2112.4,897,1710.8,736.3
				C1380.7,604.1,2185.8,296.4,2500,185.4z"/>
			<g>
				<path class="st0" d="M720,1211.5c68.9,16.5,85.4-31,63.1-71.8c-24.6-44.9-99.9-60.3-134.6-19.2
					C616.8,1158.1,685.1,1203.1,720,1211.5z"/>
				<path class="st0" d="M813.9,1238.8c8.8,40.1,121,40.6,86.8,6.6C878.4,1223.2,807.1,1208.1,813.9,1238.8z"/>
				<path class="st0" d="M2113.8,889.2c31-14.9,33.2-23.2,36.1-34c7-25.9-40.9-44.1-104.3-41.6c-171.7,6.6-176.8,126.8-40.5,107
					C2049.3,914.2,2096.7,897.4,2113.8,889.2z"/>
				<path class="st0" d="M1822.7,893.7c0,0-58,13.5-50.1,42.6c7.9,29.1,116.1,1.2,107-24.1C1870.5,886.9,1822.7,893.7,1822.7,893.7z
					"/>
			</g>
		</g>
		<g>
			<path class="st1" d="M1231.4,0h107c-163.8,283.6,998,54.8,1011.9,0H2500v50.8C2108.3,305.4,624.4,429,1231.4,0z"/>
			<g>
				<path class="st0" d="M1236.6,221.2c56.3-3.1-20.3-76.6-50.8-77.3C1108.7,141.8,1164.9,225.2,1236.6,221.2z"/>
				<path class="st0" d="M1696.8,221.1c-41.5,22.4-109.8,21.8-149.5,10.1c-55.5-16.4-63-52.5,66.7-60.1
					C1688.6,166.7,1758.9,187.6,1696.8,221.1z"/>
			</g>
		</g>
		<g>
			<path class="st1" d="M548.8,0h344.2C695,79.8,696.3,183.5,769.8,254.5c51.3,49.6,654.7,141.2,261.1,328.3
				c-305.3,145.1-1110.5,275-811.7,543.3c236.4,212.3,30,322.3-219.2,378.9V716.3C1628.4,318.1-306.2,467.8,548.8,0z"/>
			<g>
				<path class="st0" d="M247.8,736c21.9,53.1,222.8-8.5,214.9-53.9C455.2,639.5,221.6,672.5,247.8,736z"/>
				<path class="st0" d="M411.9,248.4c0,0,0.9,1.8,2.8,4.8c43.9,68.6,190.9,47.3,131.4-30.1C486.4,145.5,379.5,199.5,411.9,248.4z"
					/>
				<path class="st0" d="M961.8,435c0,0-90.4,61.5-42.3,105.7c48.1,44.2,170.1-19.2,181.7-68.2C1112.7,423.5,1025.2,393.7,961.8,435
					z"/>
				<path class="st0" d="M812.3,603.7c27.9,6.7,69.7-10.1,63.4-36C865.7,525.9,765.6,592.4,812.3,603.7z"/>
				<path class="st0" d="M616.5,329.8c15.4-25.9-59.9-49.9-58.9-14.2C558,328.7,607.8,344.5,616.5,329.8z"/>
			</g>
		</g>
		<g>
			<path class="st2" d="M1784.7,1600h-468.9c-48.6-55.1-78.1-127.4-78.1-206.6c0-172.6,139.9-312.5,312.5-312.5
				c172.6,0,312.5,139.9,312.5,312.5C1862.7,1472.6,1833.2,1544.9,1784.7,1600z"/>
			<path class="st3" d="M1260.2,1276.8c10.7-26.5,24.9-51.3,42.1-73.6c24.4,2.9,51,17.1,89.1,14.5c39.2-2.8,64-29,71-46.3
				c10.6-26.4-36.4-23.6-43.7-9.2c-7,14.1,10.9,10.9,14.8,17.2c4,6.5-40.8,20.5-36-18.5c2.4-19.3,20.1-40.6,69.5-27.6
				c0.8,0.2,1.5,0.5,2.3,0.8v0c0,0,29,9.4,39.1,17.2c10.2,7.8,41.4,2.3,51.6-1.6c10.2-3.9,18-19.5,4.7-31.3s-28.9-7-31.3,2.3
				c-2.3,9.4,18,14.8,11.7,21.1c-6.3,6.3-32-8.6-34.4-18.8s2.3-25,36.7-25s71.9,39.1,118,50c24,5.7,43-3.5,58.2-14.5
				c18.6,12.4,35.7,26.8,51.1,42.8c-42,29.4-116.5,32.4-148.4,10c-23.3-16.3-139.1-20.7-151.6,7c-1.2,2.6-2.7,5.3-4.4,7.9l0,0v0
				c-18.7,28.5-67.4,58.6-126,52.2C1307.2,1249.5,1278,1264,1260.2,1276.8z"/>
			<path class="st3" d="M1250.8,1483.1c-3.7-12.3-6.6-25-8.8-37.9c99.4-71.9,179.4,4.6,272.8,2.2c59.4-1.6,133.9,7.9,7,21.9
				C1395,1483.2,1301.2,1499.9,1250.8,1483.1z"/>
			<path class="st3" d="M1237.8,1399.3c0-2-0.1-3.9-0.1-5.9c0-7.3,0.3-14.5,0.8-21.7c30-22.4,62.7-42.6,87.9-46.6
				c59.4-9.4,93.8,15.6,153.1,31.3c59.4,15.6,93.8-50,84.4-68.8c-11.5-23.1-59.7-39.1-68.7-4.1c-2.4,9.4-0.6,19.3,7.8,22.1
				c16.4,5.5,35.2-7,36.7-1.6s-21.9,19.5-45.3,15.6c-18.7-3.1-28-28.7-18.6-55.2c15.5-43.7,76-42.8,123.8-31.3
				c43.8,10.5,79.9,30.7,125.2,33.5c44.3,2.7,56.2-11.9,87.7-43.1c11,17,20.4,35,28,54c-30,4.6-67.1,14.3-74.3,34.2
				c-12.5,34.4,33.6,41.4,45.3,25c7.6-10.6,5.3-16.7-0.9-20.4c-3.4-2.1-10.6-1.5-12-5c-3.7-9.9,27.9-4.7,32.6,7.1
				c4.7,11.7,1.4,28.5-10.4,41.8c-11.7,13.3-66.4,16.4-93,0c-26.6-16.4-26.6-54.7-48.4-63.3c-21.9-8.6-75.8-15.6-78.9,22.7
				c-3.1,38.3-34.4,100-138.3,75.8c-103.9-24.2-118.8-27.3-157.8-21.1C1280.7,1378.1,1254.6,1390.3,1237.8,1399.3z"/>
		</g>
		<g>
			<path class="st4" d="M1975.8,334.6c2.2,14.4,11.7,37.5,21.9,40.2c17.1,4.6,80.1,1.5,72.4-27.4c0-0.1,0-0.3-0.1-0.4
				c-0.7-1.5-30.9,0.9-39.7-2.9c-8.8-3.8-9.1-14-9.1-14S2001.8,332.9,1975.8,334.6z"/>
			<path class="st5" d="M1975.8,334.6c1,6.6,3.6,15.1,7,22.6c0,0,13.4-11.9,39.7-21.5c-1.2-3-1.3-5.6-1.3-5.6
				S2001.8,332.9,1975.8,334.6z"/>
			<path class="st6" d="M1744.5,233.3c7.7-12.2,92.7-31.6,141.4-34.8c48.7-3.3,150.6,61.8,150.6,61.8l-7.6,34.9l-7.6,34.9
				c0,0-119.8,16.8-162.7-6.4C1815.6,300.5,1746.4,247.6,1744.5,233.3z"/>
			<path class="st7" d="M1744.5,233.3c0.3-0.5,0.8-1.1,1.5-1.6c0.2,0.1,102.6,71.7,281.5,70l-6.2,28.6c0,0-119.8,16.8-162.7-6.4
				C1815.6,300.5,1746.4,247.6,1744.5,233.3z"/>
			<path class="st4" d="M1744.5,233.3c4.1-6.5,30.1-15,60.8-22l-14.7,67.4C1765.6,259.4,1745.5,240.9,1744.5,233.3z"/>
			<path class="st5" d="M1744.5,233.3c0.3-0.5,0.8-1.1,1.4-1.6c0,0,17,11.9,49.3,25.9l-4.6,21.1
				C1765.6,259.4,1745.5,240.9,1744.5,233.3z"/>
			<path class="st4" d="M2021.2,330.1c0,0,20,1.7,25.2-5.1c5.1-6.5,12.7-41.7,10.8-49.7c-2-8.3-20.8-15.1-20.8-15.1L2021.2,330.1z"
				/>
			<path class="st5" d="M2021.2,330.1c0,0,20,1.7,25.2-5.1c2.5-3.2,5.7-13.7,8-24.3v0c-9.2,0.5-18.2,0.7-27,0.8L2021.2,330.1z"/>
			<path class="st4" d="M1997,237.3c8-12.2,26.2-29.2,36.7-27.5c17.5,2.9,73.5,32,54.5,55c-0.1,0.1-0.2,0.2-0.3,0.3
				c-1.3,1.1-27.7-13.6-37.3-13.8c-9.6-0.2-14.1,8.9-14.1,8.9S2019.9,249.7,1997,237.3z"/>
			<path class="st5" d="M1997,237.3c3.7-5.6,9.5-12.2,15.8-17.6c0,0,7.3,16.4,27.2,36c-2.3,2.3-3.5,4.5-3.5,4.5
				S2019.9,249.7,1997,237.3z"/>
			<path class="st8" d="M1834.6,252.9c4.9-22.6,27.3-37,49.9-32c22.6,4.9,37,27.3,32,49.9c-4.9,22.6-27.3,37-49.9,32
				C1844,297.9,1829.7,275.5,1834.6,252.9z"/>
			<path class="st5" d="M1847.9,255.8c3.3-15.3,18.4-25,33.8-21.7c15.3,3.3,25,18.4,21.7,33.8c-3.3,15.3-18.4,25-33.8,21.7
				C1854.2,286.2,1844.5,271.1,1847.9,255.8z"/>
			<path class="st4" d="M1847.9,255.8c1.6-7.4,6-13.5,11.9-17.5c3.9-0.9,8-0.9,12.2,0c15.3,3.3,25,18.4,21.7,33.8
				c-1.6,7.4-6,13.5-11.9,17.5c-3.9,0.9-8,0.9-12.2,0C1854.2,286.2,1844.5,271.1,1847.9,255.8z"/>
			<path class="st8" d="M1935.1,274.8c3.7-17.1,20.6-28,37.8-24.3c17.1,3.7,28,20.6,24.3,37.8c-3.7,17.1-20.6,28-37.8,24.3
				C1942.2,308.8,1931.3,291.9,1935.1,274.8z"/>
			<path class="st5" d="M1945.1,277c2.5-11.6,14-18.9,25.6-16.4c11.6,2.5,18.9,14,16.4,25.6c-2.5,11.6-14,18.9-25.6,16.4
				C1949.9,300,1942.6,288.5,1945.1,277z"/>
			<path class="st4" d="M1945.1,277c1.2-5.6,4.6-10.3,9-13.2c2.9-0.7,6.1-0.7,9.2,0c11.6,2.5,18.9,14,16.4,25.6
				c-1.2,5.6-4.5,10.3-9,13.2c-2.9,0.7-6.1,0.7-9.2,0C1949.9,300,1942.6,288.5,1945.1,277z"/>
		</g>
		<g>
			<path class="st9" d="M1740.1,466.5c-0.8,1.3-1.7,2.6-2.9,3.7c-6.5,6.3-16.9,6.1-23.2-0.5c-6.3-6.5-6.1-16.9,0.5-23.2
				c1.2-1.1,2.5-2,3.8-2.7C1835.4,359.8,1819.1,365,1740.1,466.5z"/>
			<path class="st2" d="M868.5,331.9c-0.8,1.5-1.9,2.8-3.2,4.1c-7.1,6.9-18.5,6.6-25.4-0.5c-6.9-7.1-6.6-18.5,0.5-25.4
				c1.3-1.2,2.7-2.2,4.2-3C972.9,215.1,955,220.8,868.5,331.9z"/>
			<path class="st2" d="M1931.2,1226.9c-1,1.8-2.4,3.6-4,5.1c-9,8.6-23.3,8.4-31.9-0.6c-8.6-9-8.4-23.3,0.6-31.9
				c1.6-1.5,3.4-2.8,5.3-3.8C2062.4,1080.1,2039.9,1087.2,1931.2,1226.9z"/>
			<path class="st2" d="M417.5,1122.2c-0.8,1.3-1.7,2.6-2.9,3.7c-6.5,6.3-16.9,6.1-23.2-0.5c-6.3-6.5-6.1-16.9,0.5-23.2
				c1.2-1.1,2.5-2,3.8-2.7C512.8,1015.5,496.5,1020.7,417.5,1122.2z"/>
		</g>
		<g>
			<path class="st4" d="M2037.8,516.8c86.7-14.1,168.4,44.7,182.6,131.4c14.1,86.7-44.7,168.4-131.4,182.6
				c-86.7,14.1-168.4-44.7-182.6-131.4C1892.3,612.7,1951.1,530.9,2037.8,516.8z"/>
			<path class="st5" d="M2143.4,536.3c23.2,13.5,42.8,32.7,56.8,56.1c-0.2,11.8-5.3,22.6-16.1,28.7
				c-49.8,28.4-207.4-29.9-279.5,58.5c-2.2-56.2,25.7-108.2,70.7-138.3c-19.8,17.6-6.4,42.7,3.8,46.6c12.3,4.7-9.5-12.3,16.1-43.5
				c25.5-31.2,75.7-13.2,57.7-14.2c-18-0.9-48.3,19.9-44.5,45.4c3.8,25.5,75,30.7,66.2,18c-8.8-12.7,16.1-2.8,25.4,1.6
				c9.3,4.4,51.2,19.2,57.8,5c6.6-14.2-4.3-36.3-22.7-36.9c-18.4-0.6,1.9,32.2-16.1,26.5c-10.3-3.3-16.3-16.6-16.6-27.8
				c-0.4-15.7,15.2-24.9,34-25.8C2138.8,536.2,2141.1,536.2,2143.4,536.3L2143.4,536.3z M1991.7,531.8c2.5-1,4.3-1.8,5.3-2.6l-0.1,0
				l-0.1,0c-0.6,0.3-1.3,0.6-1.9,0.9l-0.1,0l-0.1,0c-0.6,0.3-1.1,0.5-1.7,0.8l-0.1,0l-0.1,0l-0.1,0L1991.7,531.8L1991.7,531.8z"/>
			<path class="st5" d="M2216.1,629.3c1.8,6.1,3.2,12.4,4.3,18.9c1.6,10.1,2.3,20,2,29.9c-44,18.5-102.6,40.5-151.1,49.5
				c-90.6,16.8-148.8-1-148.8-1c16.7-28.3,32.9-59.5,151.7-51.4C2127.5,678.8,2205,673.9,2216.1,629.3z"/>
			<path class="st5" d="M2221.9,687.5c-1.7,20.3-7.4,39.7-16.2,57.4c-9,3.9-38.9,25.6-36.8,38.9c1.5,9.4,0.5,6.1,0,9.1
				c-13.6,12-29.3,21.9-46.7,28.8c-16.4-5-18-27.6-9-28c10.8-0.5-0.5,9.4,11.3,13.3c11.8,3.9,23.7-13.3,13.3-22.2
				c-10.3-8.9-74.9,5.9-74.9,5.9l0,0c-29.9,7.1-58.9,12.9-84.7,17.5c-25-15.9-45.5-38.6-58.5-66L2221.9,687.5z"/>
			<path class="st10" d="M2288.3,604.4c12.4,3,23.1,6.6,31.7,10.9l0,0c1.8,0.9,3.5,1.8,5,2.8l0.1,0.1c0.5,0.3,1,0.6,1.5,0.9l0.1,0.1
				c1.5,1,2.9,1.9,4.2,2.9l0.1,0.1c0.4,0.3,0.8,0.6,1.2,1l0.1,0.1c0.8,0.7,1.6,1.4,2.3,2l0.1,0.1c0.3,0.3,0.7,0.7,1,1l0.1,0.1
				c0.3,0.3,0.7,0.7,1,1l0.1,0.1c0.3,0.3,0.6,0.7,0.9,1l0.1,0.1c0.3,0.3,0.6,0.7,0.8,1l0.1,0.2c0.3,0.4,0.5,0.7,0.8,1.1l0.1,0.1
				c0.5,0.7,1,1.5,1.4,2.2l0.1,0.2c0.2,0.4,0.4,0.7,0.6,1.1l0.1,0.2c0.2,0.4,0.3,0.7,0.5,1.1l0.1,0.1c0.1,0.4,0.3,0.7,0.4,1.1l0,0.1
				c0.1,0.4,0.2,0.8,0.4,1.1l0.1,0.2c0.1,0.4,0.2,0.7,0.3,1.1l0,0.2c0.1,0.4,0.2,0.8,0.2,1.2l0,0c0.2,1.3,0.3,2.5,0.3,3.8
				c0.9,30.4-46.6,59.4-114.2,82.6c-6.2,2.3-12.7,4.5-19.3,6.7l0.2-0.4c-80.6,25-183.6,41.8-268,43.7l0.3,0.4c-7,0-13.8,0-20.5-0.2
				c-71.4-0.5-125.7-13-134.5-42c-0.4-1.2-0.7-2.4-0.9-3.7l0,0c-0.1-0.4-0.1-0.8-0.2-1.2l0-0.2c0-0.4-0.1-0.8-0.1-1.1l0-0.2
				c0-0.4,0-0.8,0-1.2v-0.1c0-0.4,0-0.8,0-1.2l0-0.2c0-0.4,0.1-0.8,0.1-1.2l0-0.2c0-0.4,0.1-0.8,0.2-1.2l0-0.2
				c0.2-0.9,0.3-1.7,0.6-2.6l0-0.1c0.1-0.4,0.2-0.8,0.4-1.2l0.1-0.2c0.1-0.4,0.3-0.8,0.4-1.2l0-0.1c0.2-0.4,0.3-0.9,0.5-1.3l0-0.1
				c0.2-0.4,0.4-0.9,0.6-1.3l0.1-0.2c0.2-0.4,0.4-0.8,0.6-1.3l0.1-0.1c0.5-0.9,1-1.8,1.5-2.7l0.1-0.1c0.3-0.4,0.6-0.9,0.8-1.3
				l0.1-0.1c0.9-1.4,1.9-2.7,3-4.1l0.1-0.2c0.4-0.4,0.7-0.9,1.1-1.3l0.1-0.1c1.2-1.4,2.5-2.8,3.9-4.2l0,0c1.4-1.4,2.9-2.8,4.5-4.3
				l0,0c6-5.4,13.4-10.8,22-16.1l0,0c20.3-12.6,47.3-25,79.2-36.2c-3.5,18-4,37-0.9,56.1c0.5,3.2,1.2,6.5,1.9,9.6
				c91.6,11,230-11.5,313.4-51.1c-0.3-3.2-0.8-6.5-1.3-9.7c-3.1-19.2-9.6-37-18.6-53C2235.5,595.7,2265,598.9,2288.3,604.4
				L2288.3,604.4z"/>
			<path class="st8" d="M1905.5,654c-2.2,15.6-0.7,35.6,0.9,45.4c1.6,9.8,1.2,6.5,1.9,9.6c91.6,11,230-11.5,313.4-51.1
				c-0.3-3.2,0.3,0-1.3-9.7c-1.6-9.7-6.1-28-13.1-42c24.7,3.3,86.4,10.6,88.4,42.1c0.5,27.7-50.2,47.1-70.9,54.7
				c-22.5,8.3-45.9,14.9-69.2,20.6c-26.3,6.5-52.9,11.9-79.7,16.4c-45.1,7.6-92.2,13.3-137.9,14.4c-23.2,0.6-69.4,0.6-89.3-12.6
				c-10.3-6.8-19.9-16.7-19.2-30C1831,682.6,1882.5,664.8,1905.5,654z"/>
			<path class="st10" d="M1904.9,659.9c-1.1,12.9-0.7,26.1,1.5,39.5c0.5,3.2,1.2,6.5,1.9,9.6c91.6,11,230-11.5,313.4-51.1
				c-0.3-3.2-0.8-6.5-1.3-9.7c-2.1-13.1-5.8-25.5-10.8-37.1c44.7,5.9,78,17.2,78.4,37.4c1.2,61.6-377.6,124.9-435.1,87
				C1805.3,704,1878.4,670.5,1904.9,659.9z"/>
		</g>
		<g>
			<path class="st11" d="M0,0h681.1C637.9,178.8,431,131,280.3,152.4c-70.4,12.3-110.8,69.6-72.4,136.4
				c17.3,30.1,36.8,81.6,9.9,132.9C176.1,501.5,0,525,0,525v-37.4v-21.9V0z"/>
			<path class="st12" d="M0,0h485.7c0,0,7.3,79.9-138.3,86.8C336,87.2-121.6,106.4,78.9,214.7C170.1,264,46.5,318.1,0,337.2V0z"/>
			<path class="st12" d="M501.6,67.8c9.4,17.2,133.6-7.8,93-33.6C543.5,1.8,495.3,56.3,501.6,67.8z"/>
		</g>
		<g>
			<path class="st13" d="M807.8,1518.4h-19.1c24.2-17.6,46.1-34.4,65.6-50.2c90.8-73.6,131-125.5,121.8-145.6
				c-0.1-0.2-0.2-0.4-0.3-0.5c-13.3-25-113.8-24.2-286.6,12.5c-121.5,25.8-278,69.7-464.2,135.4v-12
				c185.1-65.1,340.8-108.8,461.8-134.5c178.3-37.9,283.3-36.1,299-6.7c0.2,0.4,0.4,0.8,0.6,1.2c11.3,24.8-29.7,81.9-125,159.1
				C845.1,1490.1,827.3,1504,807.8,1518.4L807.8,1518.4z M958.6,1518.4c169.8-140.7,438.5-399.1,132.7-406.3
				c-279.5-6.5-658.3,107.8-866.3,179.4v12c206.5-71.2,586.6-186.6,866.1-180.1c285.2,6.7,13,261.3-150.2,395H958.6L958.6,1518.4z
				 M886.8,1518.4c52.8-41.9,107.4-89.4,148.2-134.2c29-31.8,51.2-62.4,61-88.9c10.6-28.2,7.5-51.9-15.1-67.9
				c-24.4-17.2-72.7-24.3-153.4-16.5c-254.4,24.6-516.2,96.5-702.6,157.3v11.9c186-60.8,448.6-133.3,703.6-157.9
				c77.7-7.5,123.5-1.2,145.8,14.5c17.6,12.4,19.7,31.5,11,54.7c-9.3,24.9-30.7,54.3-58.8,85.2c-43.4,47.6-102.3,98.4-157.7,141.9
				H886.8z"/>
			<path class="st13" d="M2122.8,0h11.7c-18.4,72.1,2.6,115.8,46.5,138.8c55,28.9,145.4,26.9,240.1,8.6
				c26.2-5.1,52.7-11.4,78.8-18.7v11.7c-25.5,7-51.2,13.1-76.7,18.1c-97,18.8-190,20.6-247.5-9.7C2127.6,123.5,2104,76.6,2122.8,0
				L2122.8,0z M2280.2,0c-5.7,13.6-7.5,25.4-5.9,35.6c2.9,18.5,16.3,31.2,37.2,39c19.6,7.2,46.2,10,76.9,8.8
				c33.3-1.3,71.8-7.2,111.6-17V54.8c-40,10-78.6,16-112,17.3c-29.2,1.1-54.3-1.4-72.6-8.1c-17-6.3-27.8-16.1-29.9-30
				c-1.4-9.3,0.7-20.5,7.1-33.9H2280.2L2280.2,0z M2213.5,0c-15.3,54.3-12.9,126.3,108.4,126.3c63.4,0,124.8-8.9,178.2-20.6V94.1
				c-53.2,11.8-114.7,20.8-178.2,20.8c-109,0-110.5-65.6-96.3-114.9H2213.5z"/>
		</g>
		<g>
			<path class="st6" d="M1924.1,1308.1c577.1-263,661.2-810.4,140.9-985.9l0,0l-1.3-0.4c-0.6-0.2-1.1-0.4-1.7-0.6
				c-0.3-0.1-0.7-0.2-1.1-0.3l-22.2-7l7-30.3c0,0,214.3,2.9,454.3,106.9V1600H0v-465.4v-79.1V878.9c18.2-29.7,28-32.6,64-29.7
				c58.6,4.7,82.8-98.4,137.5-57.8c30,22.3,66.1,5.5,107.6-8.4c112.6-38,256.4,30.3,260.4,156.1c-37.4-72.7-102.4-94-180.2-67.2
				c-112.2,38.6-142.4,199.7-69.4,324.8C543.8,1580.2,1547.4,1479.7,1924.1,1308.1z"/>
			<path class="st14" d="M2500,440.7V756c0-243.3-191.8-388.6-364.8-433.8l0,0l-28.4-7.4C2293.5,341.9,2418,385.4,2500,440.7
				L2500,440.7z M2500,931.4v355.3c-69.8,120.9-140.5,203.6-140.5,203.6s-175,21.9-7.8-203.1
				C2427.2,1185.7,2476.2,1056.4,2500,931.4z"/>
			<path class="st14" d="M1717,1600H159.2c-68.6-44-123-98.2-159.2-163.5v-179.3c35.9,61.2,94.9,138.7,183,190
				c165.5,96.3,307.7,101,307.7,101s-85.9-3.1-217.2-78.1S89.2,1290.4,89.2,1290.4s131.3,190.6,537.5,245.3
				c406.2,54.7,1076.6-87.5,1212.5-142.2c135.9-54.7,252-89.5,423.7-259.6c171.6-170.1,184.1-381,184.1-381s112.5,526.6-656.2,820.3
				C1766.5,1582.5,1741.9,1591.4,1717,1600z"/>
			<path class="st14" d="M496.2,1402.9c304.7,131.3,737.5,84.4,737.5,84.4s-300,54.7-571.9,28.1c-230.9-22.6-563.2-133-610.9-401.6
				c-12.5-70.3-1.6-131.3-1.6-131.3c32.5,205.6,102.8,190.5,139,28.5c33.3-148.9,137.1-170,137.1-170
				C111.9,1010.4,268.6,1304.9,496.2,1402.9z"/>
			<path class="st6" d="M311.4,985.6c0,0,10.9-53.9,71.9-89.1c40.6-23.4,76.7-20.5,101.6-13.6c44.6,12.3,64.6,47.4,57,43.3
				c-8.6-4.7-30.5-35.9-53.1-21.1c-22.7,14.8-10.2-35.2-52.3,3.1c-42.2,38.3-50,2.3-78.1,33.6s-46.9,64.1-50,89.8
				C305.1,1057.5,295.8,1050.4,311.4,985.6z"/>
			<path class="st6" d="M2228.1,1075.9c-72.3,72.2-147.2,116.2-151.8,117.2c-1.3,0.3,1.1-2.8,5.9-8c40.8-33,92.3-87.3,103.5-113.1
				c0.8-1.5,1.3-2.7,1.4-3.7c1-3.4,1.1-6.2,0-8c-8.6-14.8,13.3-20.3,6.3-37.9c-3.8-9.5-3.5-12.9,5.2-18.4
				c57.2-17.4,70.4-29,85.6-88.9c9.4-37.3,39.3-53,59.8-94.8c34.7-70.5,40.8-129.3,40.8-129.5c1.8-11.4,3.8-23.4,5-7
				C2393.7,737.8,2391.2,913.1,2228.1,1075.9z"/>
			<path class="st6" d="M1057.7,1443c4.6,3.5-159.7-1.6-300.4-27.8c-113.4-21.1-246-66.4-339.6-136.6
				c-20.5-15.4-27.9-24.3-22.1-20.5c11.3,7.4,97.5,53.7,128.7,58.6c28.9,4.5,24-2.6,42.7-7.9l0,0v0c7.1-2,15.4,0.7,28.4,14.9
				c35.2,38.3,88.3,21.9,92.2,39.1c1.2,5.3-7.1,4.5-10.3,8.2c-1.3,1.5-1.8,3.5,0.8,6.1c4.8,4.7,50.9,14.8,59.5,17
				c128.5,32.8,271.8,43.6,314.8,46.8C1061.5,1441.4,1057.7,1443,1057.7,1443z"/>
		</g>
		<g>
			<path class="st8" d="M1794.7,545.3c-0.1,2.4,1.9,4.9,7.4,5.7c10.9,1.6,16.8,6.3,19.9,12.1c4.8,8.9,5.2,23.3,11.7,23.3
				c6.8,0,6.9-14.4,11.7-23.3c3.1-5.9,6.2-10.5,19.9-12.1c6.8-0.8,9.4-3.2,9.3-5.7c0.1-2.4-2.5-4.9-9.3-5.7
				c-13.7-1.6-16.8-6.3-19.9-12.1c-4.8-8.9-4.9-23.3-11.7-23.3c-6.6,0-6.9,14.4-11.7,23.3c-3.1,5.9-9,10.5-19.9,12.1
				C1796.7,540.4,1794.6,542.9,1794.7,545.3z"/>
			<path class="st8" d="M1882.2,503c-0.1,1.5,1.2,3,4.5,3.4c6.6,1,10.2,3.8,12.1,7.4c2.9,5.4,3.1,14.2,7.1,14.2
				c4.2,0,4.2-8.7,7.1-14.2c1.9-3.6,3.8-6.4,12.1-7.4c4.1-0.5,5.7-2,5.7-3.4c0.1-1.5-1.5-3-5.7-3.4c-8.3-1-10.2-3.8-12.1-7.4
				c-2.9-5.4-3-14.2-7.1-14.2c-4,0-4.2,8.7-7.1,14.2c-1.9,3.6-5.5,6.4-12.1,7.4C1883.4,500,1882.2,501.5,1882.2,503z"/>
			<path class="st8" d="M447.4,352c-0.1,2.2,1.8,4.5,6.8,5.2c10.1,1.4,15.5,5.8,18.4,11.2c4.4,8.3,4.8,21.6,10.8,21.6
				c6.3,0,6.4-13.3,10.8-21.6c2.9-5.4,5.8-9.7,18.4-11.2c6.3-0.7,8.7-3,8.6-5.2c0.1-2.2-2.3-4.5-8.6-5.2
				c-12.7-1.5-15.5-5.8-18.4-11.2c-4.4-8.3-4.5-21.6-10.8-21.6c-6.1,0-6.4,13.3-10.8,21.6c-2.9,5.4-8.3,9.8-18.4,11.2
				C449.2,347.5,447.3,349.8,447.4,352z"/>
			<path class="st8" d="M1292.3,1074.7c-0.1,2.4,1.9,4.9,7.4,5.7c10.9,1.6,16.8,6.3,19.9,12.1c4.8,8.9,5.2,23.3,11.7,23.3
				c6.8,0,6.9-14.4,11.7-23.3c3.1-5.9,6.2-10.5,19.9-12.1c6.8-0.8,9.4-3.2,9.3-5.7c0.1-2.4-2.5-4.9-9.3-5.7
				c-13.7-1.6-16.8-6.3-19.9-12.1c-4.8-8.9-4.9-23.3-11.7-23.3c-6.6,0-6.9,14.4-11.7,23.3c-3.1,5.9-9,10.5-19.9,12.1
				C1294.3,1069.8,1292.2,1072.3,1292.3,1074.7z"/>
			<path class="st8" d="M126.3,302.4c-0.1,1.5,1.2,3,4.5,3.4c6.6,0.9,10.2,3.8,12.1,7.4c2.9,5.4,3.1,14.2,7.1,14.2
				c4.2,0,4.2-8.7,7.1-14.2c1.9-3.6,3.8-6.4,12.1-7.4c4.1-0.5,5.7-2,5.7-3.4c0.1-1.5-1.5-3-5.7-3.4c-8.3-1-10.2-3.8-12.1-7.4
				c-2.9-5.4-3-14.2-7.1-14.2c-4,0-4.2,8.7-7.1,14.2c-1.9,3.6-5.5,6.4-12.1,7.4C127.5,299.4,126.2,300.9,126.3,302.4z"/>
		</g>
		<g>
			<path class="st15" d="M1792.3,0c0.1,2.8,0.2,5.6,0.2,8.5c0,105.4-85.5,190.9-190.9,190.9c-105.4,0-190.9-85.5-190.9-190.9
				c0-2.8,0.1-5.7,0.2-8.5H1792.3z"/>
			<path class="st16" d="M1747.2,131.9c-35,41.3-87.3,67.5-145.6,67.5c-12.9,0-25.4-1.3-37.5-3.7c3.2-2.5,8.3-5.1,16-7.2
				c23.8-6.6,43.8,11.3,47.7-7.8s32.8-6.6,35.2-16s-31.6-7.8-26.2-12.9c5.5-5.1,43.4-19.9,78.5-16
				C1726.3,136.9,1737.3,135,1747.2,131.9z"/>
			<path class="st16" d="M1792.3,1c0.1,2.5,0.2,4.9,0.2,7.4c0,6.7-0.3,13.3-1,19.8c-12.1,10.3-27.3,19.7-43,20.3
				c-36.1,1.4-41.8,4.3-72.3,4.3s-1.6-7.8,27.7-14.5s26.2-14.8,51.6-16C1769.6,21.8,1783.1,10.7,1792.3,1z"/>
			<path class="st16" d="M1789.7,41c-2.2,12.8-5.7,25.2-10.3,37c-4.4,5.5-9.7,11-16.1,15.6c-23.4,16.8-108.6,20.3-134,34.8
				c-25.4,14.5-8.2,18.4-37.5,22.3c-29.3,3.9-14.5-13.7-63.3-6.3c-21.4,3.2-35.8,8.8-45.2,14c-23.3-18.4-42.2-42.1-54.9-69.3
				c2.4,1.6,4.9,3.2,7.5,4.9c50.8,32.4,74.2,11.3,119.5,10.2c45.3-1.2,17.6-0.4,46.1-4.4c28.5-4-6.6-24.5-20.7-30.4
				c-1.1-0.5-2.2-1-3.2-1.6c-5.2-2.5-16.1-7.4-26.5-9.3c-14.5-2.7-16.8,4.3-67.2,5.9c-27.4,0.8-51.2-4.3-67.6-9.2
				c-3.7-14.9-5.7-30.5-5.7-46.6c0-1.7,0-3.4,0.1-5.1c15.4,12.3,41.1,29.5,60,24.1c28.5-8.2,24.2,1.2,60.2,9.4
				c12.5,2.8,29.5,1.8,33.6-12.5c1.2-4.2,3.1-8.1,5.6-11.7l0,0l0,0c3.6-5.1,8.5-9.4,14.7-12.7h64.7c13.9,8.9,15,24.2,11.1,33.7
				c-5.5,13.3-28.9,14.8-30.9,9c-2-5.9,10.2,1.6,16.4-7.4s-6.6-21.5-26.6-21.5c-19.9,0-25.8,23-9,41.4c16.8,18.4,53.1,12.5,116,12.1
				C1763.9,67.1,1781.3,52.7,1789.7,41z"/>
		</g>
		<g>
			<g>
				<path class="st8" d="M730.9,1483.5c4.8-1.5,16-7.8,9.4,2.3c-2.2,3.3-7.1,7.2-10.7,9.4C722.8,1499.1,724.3,1485.5,730.9,1483.5z"
					/>
				<g>
					<path class="st8" d="M698.7,1423.3c15.9-2,32.5-5.3,46.9-10.4c-22.1-4.4-44.8-9.7-67.7-15.9c-12.4,4-24.9,8.1-36.1,11.8
						C660.2,1414.1,679.3,1418.9,698.7,1423.3L698.7,1423.3z M768.4,1401.3c-10.3-2.3-20.6-4.8-30.8-7.4c-4-1-16.2-3.8-28.6-6.9
						c11.4-3.7,21.9-7,30.3-9.6c43-13.3,23.4-11.7,68.7-20.3c8.7-1.7,83.6-5.4,86.8,4.3c1.2,3.5-4.7,25.2-12.6,38.2l0,0.1
						c-4.5,8.9-11.7,19.2-22.2,30.9c-29.3,32.9-37.1,42.9-74.6,74.2c-16,13.3-54.8,32.2-85,49.9c-40.7,23.9-59.1,45.3-59.1,45.3
						h-56.6c-3.4,0,14-13.2,32.2-32.8c34.5-37.3,74.4-55.4,98.3-68.1c2.9-1.5,5.6-0.1,4.1,2.1c-6.2,9.5-45.4,44.4-47.2,45.9
						c-15,12,178.5-80.2,190.1-151.7C865.7,1372.2,805.7,1373.5,768.4,1401.3z"/>
					<path class="st8" d="M924.9,1333c0,0-9,7.4-14.8,10.4c-5.9,2.9-12.9,8.4-2,9.2c10.9,0.8,25-1,28.5-9.4S939.3,1325,924.9,1333z"
						/>
				</g>
			</g>
			<g>
				<path class="st8" d="M2418.1,372.9c0,0,2.6,0.5,25.4-4.4c22.8-4.9,32.8-7.7,32.8-3.8c0,2.7,2.5,9.5-0.2,15.8c4.8,2,9.7,4,14.5,6
					c1.9-11.1,1.9-26.5-3.4-31.2c-1-0.9,1.1-5.6,0.6-7.2c-0.4-1.4-3.4,0.3-4.2-0.2c-1-0.7-3.8,1.7-5.1,1.3c-3.8-1-9.1-0.1-18.6,4.5
					c-10.9,5.3-27.4,12.9-38.4,17.3C2420.5,371.4,2418.7,372,2418.1,372.9z"/>
				<path class="st8" d="M2202.4,487.8c-2.1,4.2,3.5,4.2,8.8,3.8c5.3-0.4,11.7-3.1,10.7-4.9C2220,483.3,2204.5,483.6,2202.4,487.8z"
					/>
				<path class="st8" d="M2319.8,482.8c-10.6,2.3-15.4,5.6-46-1.3c-30.6-6.9,0.7-27.3,9.3-36.6c8.6-9.4,41-25,65.2-45.3
					s68-23.9,54.7-23.9s-64.8,12.1-82,17.6c-32.4,10.3-57.8,40.1-71.1,68.5c-2.5,5.4-19.1,16.1-20.4,22.8c-0.4,2.2,4.5,4.3,7.1,5.2
					c29.7,9.9,31.7,9.8,63.7,16.8c16.2,3.6,29.4,3.9,40.1,2.5C2334,500,2327.1,491.3,2319.8,482.8z"/>
			</g>
			<g>
				<path class="st8" d="M2098.9,970.6c-4.5-1.7-21.4-4.3-19.1,3.9C2082.5,984.3,2110.4,972,2098.9,970.6z"/>
				<path class="st8" d="M2268.9,1060.7c-4.7-4-9.6-8.3-14.6-12.6c-5.3,6-10.8,12-16.5,17.9c5.6,3.9,11.1,7.7,16.3,11.2
					C2259.2,1071.7,2264.1,1066.2,2268.9,1060.7L2268.9,1060.7z M2500,920.9c-10.8,2.7-22.1,5.9-30.2,6.7
					c-51.8,5.3-104-8.6-159.9-7.1c-9.2,0.2-45.1,3.7-81.2,10.7c0,0-20.7,1.3-36.4,10.3c-15.6,9-22.3,10.2-33.6,16.4
					c-7.8,4.3-33.3,7.4-41.8,10.6c-3.8,1.4-2.5,4.6,2.4,5c8.6,0.6,13.6,18.6,25.4,20.3c3.1,0.4,7.8-1.6,11.1,0.8
					c14.8,11,32.6,34,38.4,38.7c0.8-3.1,0.8-6.7-0.9-10.9c-3.8-9.5-3.5-12.9,5.2-18.4c2.6-0.8,5-1.6,7.4-2.3
					c-7-8.1-10.4-13.9-7.7-15.6c12.5-7.8,117.8-53.6,173.4-49.2c27.4,2.1,45,8,71.3,8.8c16.1,0.4,40.8-4.5,57.1-3.3V920.9z"/>
			</g>
		</g>
		<g>
			
				<ellipse transform="matrix(0.7071 -0.7071 0.7071 0.7071 -294.8015 335.9152)" class="st9" cx="258.1" cy="523.8" rx="200.8" ry="200.8"/>
			<path class="st17" d="M80.7,429.6c17.8-33.5,44.9-61.4,77.7-80.2c8.6,15.9,16,36.8,9,43.2c-10.2,9.4-38.3,25.8-7.8,35.9
				c30.5,10.2,53.1,2.3,47.6,21.9c-5.5,19.5-49.2,24.2-35.9,37.5c13.3,13.3-3.9,47.6-25,25.8c-21.1-21.9,1.6-69.5-18.7-69.5
				c-20.3,0-31,5.8-37.5-7C88.5,433.8,85,431.4,80.7,429.6z"/>
			<path class="st17" d="M269.4,323.3c65.8,3.7,123.1,39,157,90.9c-2,12.4-5.5,27-11.4,37.7c-12.5,22.6,18,6.2,18.7,39
				c0.8,32.8-6.2,38.3-35.9,8.6c-29.7-29.7-9.4,6.2-21.9,25.8c-12.5,19.5-47.6,3.1-40.6-35.1c7-38.3,0-31.2-26.6-20.3
				c-26.6,10.9-30.5-4.7-43.7-27.3c-13.3-22.6,31.2,4.7,39.8-8.6c8.6-13.3,15.6,7.8,37.5,4.7c21.9-3.1,8.6-17.2,8.6-17.2
				s-25.8-10.9-48.4-21.1c-22.6-10.2,17.2-20.3,0-38.3C293,352.2,279.5,335.8,269.4,323.3z"/>
			<path class="st17" d="M269.7,724.3c-3.8,0.2-7.7,0.3-11.6,0.3c-63.8,0-120.6-29.7-157.4-76.1c0.5-0.5,1.1-1,1.6-1.6
				c5.6-5.6,1.5-35.7,25.8-47.1c19.2-9,66.6,0.4,77.3-4.2c24.2,2.9-7,9.5-20.3,28.5c-13.3,19,21.1,78.9,24.7,18.6
				c3.6-60.3,40.9-8.2,48.7-36.7c7.8-28.5,28.1,22.8,11.7,51.3C256.4,681.4,263,685.9,269.7,724.3z"/>
			<path class="st17" d="M339.3,579.3c3.1,25.8-21.1,37.5,0,42.9c21.1,5.5,16-14.1,32.2-33.6C409.5,542.9,334.7,541.7,339.3,579.3z"
				/>
			<path class="st17" d="M212.8,525c0,0-11.9-1.6-18.4-6.4c-6.4-4.9-17.6-5.5-13.7,4.5c3.9,10,8.2,15.2,24,14.3
				C220.6,536.3,223.7,527.2,212.8,525z"/>
		</g>
		<g>
			<path class="st11" d="M2500,1259.3V1600h-993.7h-65.4h-13.1c52.1-185.2,361.5,79.2,624.6-202
				C2187.9,1253.1,2360.5,1238.5,2500,1259.3z"/>
			<path class="st12" d="M2500,1290.2V1600h-966.9c19.7-24.3,71.7-48.6,206.4-34.7c242.2,25,373.4-48.4,573.4-29.7
				c200,18.8,120.3-89.1-75-85.9c-195.3,3.1-129.7-51.6,18.8-109.4C2346.3,1305.4,2439.9,1293.9,2500,1290.2z"/>
			<path class="st12" d="M2071.3,1430.3c0,0-27.8,9.3-31.3,27c-3.4,17.7,56.7,7.3,58.4-14.3
				C2100.1,1421.5,2071.3,1430.3,2071.3,1430.3z"/>
		</g>
		<g>
			<circle class="st2" cx="692.6" cy="842.8" r="35.9"/>
			<circle class="st1" cx="1842.1" cy="1093.1" r="35.9"/>
			<path class="st9" d="M869.2,108.3c16.9,0,30.7,13.7,30.7,30.7c0,16.9-13.7,30.7-30.7,30.7c-16.9,0-30.7-13.7-30.7-30.7
				C838.5,122.1,852.3,108.3,869.2,108.3z"/>
			
				<ellipse transform="matrix(0.7071 -0.7071 0.7071 0.7071 -468.2271 762.0861)" class="st1" cx="685.8" cy="946.2" rx="18" ry="18"/>
			
				<ellipse transform="matrix(0.7071 -0.7071 0.7071 0.7071 -152.0211 1714.5374)" class="st9" cx="1993.6" cy="1040.8" rx="18" ry="18"/>
			<path class="st1" d="M999.9,156.4c9.9,0,18,8,18,18c0,9.9-8,18-18,18c-9.9,0-18-8-18-18C981.9,164.4,989.9,156.4,999.9,156.4z"/>
			<path class="st16" d="M567.1,451.7c13.4,0,24.2,10.8,24.2,24.2s-10.8,24.2-24.2,24.2c-13.4,0-24.2-10.8-24.2-24.2
				S553.7,451.7,567.1,451.7z"/>
			<circle class="st2" cx="2334" cy="232.7" r="35.9"/>
			<path class="st17" d="M2280.1,1426.7c16.9,0,30.7,13.7,30.7,30.7s-13.7,30.7-30.7,30.7c-16.9,0-30.7-13.7-30.7-30.7
				S2263.1,1426.7,2280.1,1426.7z"/>
			
				<ellipse transform="matrix(0.5618 -0.8272 0.8272 0.5618 813.3167 1716.9595)" class="st14" cx="2027.5" cy="90.7" rx="18" ry="18"/>
			<path class="st2" d="M164.3,83c15.3,0,27.7,12.4,27.7,27.7c0,15.3-12.4,27.7-27.7,27.7c-15.3,0-27.7-12.4-27.7-27.7
				C136.6,95.4,149,83,164.3,83z"/>
			
				<ellipse transform="matrix(0.6086 -0.7935 0.7935 0.6086 -488.9854 1966.845)" class="st8" cx="1749.1" cy="1479.1" rx="18" ry="18"/>
			<path class="st2" d="M1544.4,257.9c12.1,0,21.9,9.8,21.9,21.9c0,12.1-9.8,21.9-21.9,21.9c-12.1,0-21.9-9.8-21.9-21.9
				C1522.6,267.6,1532.4,257.9,1544.4,257.9z"/>
			<circle class="st8" cx="694.4" cy="251.7" r="12.5"/>
			<path class="st8" d="M2223.3,218.1c6.9,0,12.5,5.6,12.5,12.5c0,6.9-5.6,12.5-12.5,12.5c-6.9,0-12.5-5.6-12.5-12.5
				C2210.8,223.7,2216.4,218.1,2223.3,218.1z"/>
			<path class="st8" d="M1738.8,1004.2c6.9,0,12.5,5.6,12.5,12.5c0,6.9-5.6,12.5-12.5,12.5c-6.9,0-12.5-5.6-12.5-12.5
				C1726.3,1009.8,1731.9,1004.2,1738.8,1004.2z"/>
			<path class="st8" d="M606.9,765c6.9,0,12.5,5.6,12.5,12.5c0,6.9-5.6,12.5-12.5,12.5c-6.9,0-12.5-5.6-12.5-12.5
				C594.4,770.6,600,765,606.9,765z"/>
			<path class="st8" d="M1685.8,340.8c6.9,0,12.5,5.6,12.5,12.5c0,6.9-5.6,12.5-12.5,12.5c-6.9,0-12.5-5.6-12.5-12.5
				C1673.3,346.4,1678.9,340.8,1685.8,340.8z"/>
			<circle class="st1" cx="267.8" cy="265" r="12.5"/>
		</g>
	</g>
</g>
</svg>
