<?xml version="1.0" encoding="utf-8"?>
<!-- Generator: Adobe Illustrator 22.0.0, SVG Export Plug-In . SVG Version: 6.00 Build 0)  -->
<svg version="1.1" id="Camada_1" xmlns="http://www.w3.org/2000/svg" xmlns:xlink="http://www.w3.org/1999/xlink" x="0px" y="0px"
	 viewBox="0 0 640 480" style="enable-background:new 0 0 640 480;" xml:space="preserve">
<style type="text/css">
	.st0{fill:#171932;}
	.st1{fill:#0D3285;}
	.st2{fill:#F2E0E0;}
	.st3{fill:#959BAB;}
	.st4{fill:#090D23;}
	.st5{opacity:0.9;fill:#171932;}
</style>
<path class="st0" d="M204.3,177.3c3.6-5.8,12-18.5,34.6-21.1c8.7-1,17.5,0.9,25,3.5c2.8,0.6,5.1,2.1,7.2,2.7c5.1,1.4,10.7-9,10.7-9
	s0.4,8.8,3.9,16l2.1-16.8c0,0,7.3,8.3,6,16.6c-0.8,5.1-2.8,8-4.1,9.4c0,0.1-0.1,0.1-0.2,0.2c-0.1,0.1-0.2,0.2-0.3,0.3
	c-0.4,0.4-0.7,0.5-0.7,0.5l0,0c-3.3,1.8-16.7,1.5-28-1.8c0,0,0,0,0,0c-9.2-2-19.9-6.3-28.6-6.3c-12.6-0.1-15,6.8-21.7,13.1
	C203.7,190.9,200.7,183.1,204.3,177.3z"/>
<path class="st0" d="M442.8,122.7c-6.9-25.4-17.7-50.6-39.1-72.2c-21.4-21.7-56.5-37.9-92.6-37.9S236.5,32.3,220,52.8
	c-16.5,20.5-24.7,32.9-31,49.7c-6.3,16.8-11.1,32.7-11.1,50.9s1.2,26.9,2.1,32.8c0.9,5.9,1.1,7.8,1.8,8.9c0.7,1.1,1.3,1.3,1.3,1.3
	s5.6-0.5,4.7-10.3c-0.9-9.8-0.6-35.8,4.8-50.9c5.4-15,5.4-37.5,18.3-53.4c12.9-15.9,50.2-30.7,74-24.7c23.8,6.1,43.9,4.6,54.6,1.2
	c10.7-3.5,53.1,2.9,68.1,13.3c15,10.4,20.7,54.3,26.2,67.9c5.4,13.6,7.5,12.1,9,27.7c1.5,15.6-2.1,32.7,0,35.3c2.1,2.6,3-7.3,3-7.3
	S449.7,148.1,442.8,122.7z M431.2,107.8c-0.2,3.9-2.5,3-3.8,2c-1.3-1.1-2.5-15.4-7.1-24.9c-4.7-9.5-7.6-13.2-17.2-18.9
	c-9.6-5.6-28.3-9.9-42.3-11.8c-14-1.9-25.7-5-24.2-16.2s14.5-11.1,14.5-11.1s10.1-0.2,16.1,1.9c6,2.1,9,3.2,16.8,8.2
	c7.7,5,23.3,18.6,26,22c2.6,3.4,14.7,20.9,16.8,27.4C428.7,92.7,431.4,103.8,431.2,107.8z"/>
<g>
	<path class="st0" d="M292.4,279c3.3,5.5,17.8,7,32.3,7c11,0,21.8-0.8,28-1.4c0.5,0,1.1-0.1,1.5-0.1c1.6-0.2,2.8-1.6,2.6-3.3
		c-0.1-1.7-1.6-2.8-3.1-2.7c-25,2.4-53.6,1.9-56.4-2.6c-2.6-5.5,13.2-45.8,29.3-80c0.7-1.5,0.1-3.3-1.3-4c-0.8-0.4-1.6-0.3-2.4,0
		c-0.6,0.3-1.1,0.7-1.5,1.3C310.7,215.8,286.6,269.4,292.4,279z"/>
</g>
<path class="st0" d="M432.3,177.3c-3.6-5.8-12-18.5-34.6-21.1c-8.7-1-17.5,0.9-25,3.5c-2.8,0.6-5.1,2.1-7.2,2.7
	c-5.1,1.4-6.7-7.8-6.7-7.8s-7,8.1-10.5,15.2l0.5-17.2c0,0-7.3,8.3-6,16.6c0.8,5.1,2.8,8,4.1,9.4c0,0.1,0.1,0.1,0.2,0.2
	c0.1,0.1,0.2,0.2,0.3,0.3c0.4,0.4,0.7,0.5,0.7,0.5l0,0c3.3,1.8,16.7,1.5,28-1.8c0,0,0,0,0,0c9.2-2,19.9-6.3,28.6-6.3
	c12.6-0.1,15,6.8,21.7,13.1C432.9,190.9,435.9,183.1,432.3,177.3z"/>
<g>
	<path class="st0" d="M336.9,171.3c1.8,7.7,5.6,10,5.6,10l-1.8-27C340.7,154.3,335,163.1,336.9,171.3z"/>
</g>
<path class="st0" d="M406.8,215.3c0,0-9.8-14.4-26.3-15.5c-16.5-1.1-32.5,10.8-32.5,10.8s9.4-2.1,19.9-3c-1,1.4-1.5,3-1.4,4.6
	c0.4,4.8,6,8.3,12.7,7.8c6.6-0.5,11.7-4.7,11.3-9.5c0-0.6-0.2-1.2-0.4-1.7C399.6,211.2,406.8,215.3,406.8,215.3z"/>
<path class="st0" d="M229.6,215.3c0,0,9.8-14.4,26.3-15.5c16.5-1.1,32.5,10.8,32.5,10.8s-9.4-2.1-19.9-3c1,1.4,1.5,3,1.4,4.6
	c-0.4,4.8-6,8.3-12.7,7.8c-6.6-0.5-11.7-4.7-11.3-9.5c0-0.6,0.2-1.2,0.4-1.7C236.9,211.2,229.6,215.3,229.6,215.3z"/>
<path class="st1" d="M350.9,26.8c0,0-13-0.1-14.5,11.1s10.2,14.3,24.2,16.2c14,1.9,32.7,6.2,42.3,11.8c9.6,5.6,12.6,9.3,17.2,18.9
	c4.7,9.5,5.8,23.9,7.1,24.9c1.3,1.1,3.6,2,3.8-2c0.2-3.9-2.5-15.1-4.6-21.6c-2.1-6.5-14.2-24-16.8-27.4c-2.6-3.4-18.2-17-26-22
	c-7.7-5-10.7-6.1-16.8-8.2C361,26.5,350.9,26.8,350.9,26.8z"/>
<path class="st2" d="M459,204.7c-4.4-5-8-5.4-12-3.5c-1.4,0.7-2.3,1.1-2.9,1.4c-0.2,0.2-0.4,0.3-0.6,0.3c-0.5,0.2-0.5,0.3-0.5,0.3
	s0-0.2,0-0.6c0,0-0.1-0.1-0.1-0.1c-1.1-1.4-0.6-7.1-0.1-14.5c-0.3-8.8-0.8-20.6-2.1-33c-1.5-4.4-3.5-7.1-6.9-15.5
	c-4.7-11.7-9.6-46.1-20.5-62c-1.8-2.1-3.7-4.1-5.7-6c-15.1-10.4-57.4-16.7-68-13.2c-10.7,3.5-30.8,4.9-54.6-1.2
	c-23.8-6.1-61.1,8.8-74,24.7s-12.9,38.3-18.3,53.4c-5.4,15-5.7,41-4.8,50.9c0.9,9.8-4.7,10.3-4.7,10.3s0,0-0.1,0
	c-0.9-0.4-12.8-5.8-16.6,6.4c-3.9,12.7-4.6,33.5,0,50.5c2.4,8.9,2.7,16.6,4.1,22.2c7.1-27.2,13.4-55.3,13.4-55.3s0.8,12.7,4.8,35.1
	c4,22.3,10.8,54.7,23.3,63.6c12.4,8.9,24.1,17,31.7,36.6c7.6,19.6,26.9,35.1,46.1,42.4c19.2,7.3,54.5,5.8,75.4-5.4
	c20.9-11.2,34.5-29.3,36.1-48.2c1.6-18.9,33.3-37.2,34.9-46.1c1.6-8.9,11.6-67.6,11.6-67.6s0,0,1.2,12.3c0.6,5.9,4.4,17.6,8.5,30.8
	c0.8-9.8,1.2-23.3,3.5-31.9C465,227,463.4,209.7,459,204.7z M340.7,154.3l1.8,27c0,0-3.9-2.3-5.6-10
	C335,163.1,340.7,154.3,340.7,154.3z M321.3,193.2c0.3-0.7,0.9-1,1.5-1.3c0.8-0.4,1.6-0.5,2.4,0c1.4,0.7,2,2.5,1.3,4
	c-16.1,34.2-31.8,74.5-29.3,80c2.7,4.6,31.4,5,56.4,2.6c1.6-0.1,3,1.1,3.1,2.7c0.1,1.7-1,3.1-2.6,3.3c-0.4,0-1,0.1-1.5,0.1
	c-6.2,0.6-17,1.4-28,1.4c-14.5,0-29-1.5-32.3-7C286.6,269.4,310.7,215.8,321.3,193.2z M210.3,184.5c-6.6,6.4-9.6-1.4-6-7.2
	c3.6-5.8,12-18.5,34.6-21.1c8.7-1,17.5,0.9,25,3.5c2.8,0.6,5.1,2.1,7.2,2.7c5.1,1.4,10.7-9,10.7-9s0.4,8.8,3.9,16l2.1-16.8
	c0,0,7.3,8.3,6,16.6c-0.8,5.1-2.8,8-4.1,9.4c0,0.1-0.1,0.1-0.2,0.2c-0.1,0.1-0.2,0.2-0.3,0.3c-0.4,0.4-0.7,0.5-0.7,0.5
	c-3.3,1.8-16.7,1.5-28-1.8c-9.2-2-19.9-6.3-28.6-6.3C219.3,171.3,216.9,178.2,210.3,184.5z M255.9,199.8
	c16.5-1.1,32.5,10.8,32.5,10.8s-9.4-2.1-19.9-3c1,1.4,1.5,3,1.4,4.6c-0.4,4.8-6,8.3-12.7,7.8c-6.6-0.5-11.7-4.7-11.3-9.5
	c0-0.6,0.2-1.2,0.4-1.7c-9.5,2.3-16.8,6.4-16.8,6.4S239.4,200.9,255.9,199.8z M390.1,208.9c0.2,0.5,0.3,1.1,0.4,1.7
	c0.4,4.8-4.7,9-11.3,9.5c-6.6,0.5-12.3-3-12.7-7.8c-0.1-1.6,0.4-3.2,1.4-4.6c-10.5,0.9-19.9,3-19.9,3s16-11.9,32.5-10.8
	c16.5,1.1,26.3,15.5,26.3,15.5S399.6,211.2,390.1,208.9z M426.2,184.5c-6.6-6.4-9-13.2-21.7-13.1c-8.7,0.1-19.4,4.3-28.6,6.3
	c-11.2,3.3-24.7,3.6-28,1.8c0,0-0.3-0.1-0.7-0.5c-0.1-0.1-0.2-0.2-0.3-0.3c0-0.1-0.1-0.1-0.2-0.2c-1.3-1.4-3.3-4.2-4.1-9.4
	c-1.3-8.3,6-16.6,6-16.6l-0.5,17.2c3.5-7.1,10.5-15.2,10.5-15.2s1.5,9.3,6.7,7.8c2.2-0.6,4.5-2.1,7.2-2.7c7.5-2.6,16.3-4.5,25-3.5
	c22.6,2.6,31,15.3,34.6,21.1C435.9,183.1,432.9,190.9,426.2,184.5z"/>
<path class="st3" d="M448.9,242.8c0.2,2.2,0.9,5.1,1.8,8.7c0.1-7.5-0.7-20,2.2-21.3c4-1.7,2.4,9.2,3.5,8.7c1.1-0.5,1.3-2.5,1.3-2.5
	s0-0.1,0-0.4c0.3-2.7,1.7-18.8-1.3-25.4c-3.3-7.2-4.8-2.6-6.3,2.3c-1,3.3-1.8,11.8-2.2,19.4C448.1,233.9,448.4,237,448.9,242.8z"/>
<g>
	<path class="st3" d="M288.5,301.8c11,3.3,29.3,1.7,40.2,0c10.8-1.7,15.8-1.2,19.3-13.1c0.4-1.5,0.8-2.8,1.2-3.8
		c-6.3,0.5-15.3,1.1-24.5,1.1c-14.5,0-29-1.5-32.3-7c-4.5-7.6,9.5-42.5,20.8-68l2.4-7c0,0,4.3-6.8,3-8.8c-1.3-2,2.8-1.5-5.4-12.8
		c-5.9-8.2-13.8-11.5-19.5-12.7c-0.8,4.9-2.8,7.6-4,8.9c0,0.1-0.1,0.1-0.2,0.2c-0.1,0.1-0.2,0.2-0.3,0.3c-0.4,0.4-0.7,0.5-0.7,0.5
		c-1.8,1-6.6,1.3-12.5,0.9c1.1,0.6,2.1,1.2,2.9,1.8c0,0,14.2,8.5,18.2,19.4c4,10.9-15.2,36.1-20,43c-4.8,6.9-13,22-14.8,35.5
		c-0.4,3,0.1,5.6,1.3,7.8c0,0,0.1,0.1,0.2,0.3c0.1,0.1,0.2,0.4,0.2,0.4s0.3,0.6,0.8,1.2C270.1,296.4,281,299.6,288.5,301.8z"/>
	<path class="st3" d="M285.5,169c0.1,0.2,0.1,0.3,0.2,0.5l0.1-0.4C285.7,169,285.6,169,285.5,169z"/>
</g>
<path class="st3" d="M225.4,312.1c-13.8-25.9-27.1-85.3-25.9-110.8s2.4-39.9,11.4-71.1c6.6-22.9,29.4-55.7,41.1-71.5
	c-17,4.5-33.4,13.6-41.1,23.1c-12.9,15.9-12.9,38.3-18.3,53.4c-5.4,15-5.7,41-4.8,50.9c0.9,9.8-4.7,10.3-4.7,10.3s0,0-0.1,0
	c-0.9-0.4-12.8-5.8-16.6,6.4c-3.9,12.7-4.6,33.5,0,50.5c2.4,8.9,2.7,16.6,4.1,22.2c2.4-9,4.6-18.1,6.6-26.3c0-7.5,0.7-18.9-2.6-20.1
	c-4.7-1.7-2.8,9.2-4.1,8.7c-1.3-0.5-1.5-2.5-1.5-2.5s0-0.1,0-0.4c-0.3-2.7-2-18.8,1.6-25.4c3.9-7.2,5.7-2.6,7.5,2.3
	c1.4,3.8,2.4,14.2,2.8,22.4c2-8.5,3.2-14,3.2-14s0.8,12.7,4.8,35.1c4,22.3,10.8,54.7,23.3,63.6c12.4,8.9,24.1,17,31.7,36.6
	c7.6,19.6,26.9,35.1,46.1,42.4c10.4,4,25.6,5.3,40.7,4c-12.8-3.8-25.1-7.9-33.1-11.7C274.2,379,239.2,338,225.4,312.1z"/>
<path class="st4" d="M444.8,196.9c-5.9-0.9-20.4-3.9-33.4-4.6c-13-0.7-33.2-0.1-43.9,0.7c-10.7,0.8-19.4,3.5-22.1,5.3
	c-2.6,1.8-5.9,5.3-7.5,5.4c-1.6,0.1-9-0.9-18.2-1.1c-9.2-0.2-15.6,0.8-16.5,0.8c-0.9,0-4.8-3.9-8.6-6.1c-3.8-2.1-14.2-4-20.1-5.3
	c-5.8-1.3-18.6-2.3-26.4-2.5c-7.7-0.2-25.3,0.3-34.7,1.3c-9.4,1-20.6,2.9-25.2,3.7c-4.6,0.8-6.4,0.9-6.4,0.9s3,4.8,4.8,5.9
	s8,2.2,9,3.5c1.1,1.3,1.7,8.1,2.9,8.4c1.2,0.3,1.2,0.3,1.2,0.3s1.3,9.7,3.8,18c2.5,8.3,4.2,12.7,8,17.1c3.8,4.4,4,6.8,14.5,9.9
	c10.5,3.1,19.9,4,27.1,3.9c7.2-0.1,16.8,0.4,26.1-2.9c9.2-3.3,13.5-8,16-13.2s6.1-12.9,7.2-19c1.1-6.1,1.4-16,3.4-17.1
	c2-1.2,7.4-1.4,13.8-1.7c6.4-0.3,14.7,0.8,15.5,1.8c0.8,1.1,1.6,15.6,3.2,21.6c1.6,6,4.7,14.3,9.6,20.2c4.9,6,11.5,9.7,24.5,10.3
	c12.9,0.6,24.9,1.2,35.2-1.4c10.3-2.6,17.4-7.3,20.9-14.1c3.4-6.7,4.9-6.9,7-18.3c2.1-11.4,1.1-13.2,2.2-13.6
	c1.1-0.4,2.1-1.3,2.1-3.2s2.6-4.9,5.2-6c2.6-1.1,4.6-0.4,4.9-3.9C450.4,198.5,450.7,197.7,444.8,196.9z M302,221.4
	c-0.7,5.3-2.6,14.4-6.3,21.3c-3.7,6.9-5.6,8.4-11,12.6c-5.4,4.2-15.8,5.9-22.4,5.7c-6.6-0.2-13,0.5-27.9-1.7
	c-14.8-2.2-18.2-7.3-23.2-14.2c-4.9-6.8-8-19.3-8.7-24.2s-2.6-16,0.7-20.2c3.3-4.2,9.8-6.4,11.3-6.5c0,0,8.9-2,16-2.5
	c7.1-0.5,20.7,0.1,30,0.7c9.3,0.6,20.8,2.5,28.7,5.4c8,2.9,10.9,6,12.1,9.8C302.6,211.1,302.7,216.1,302,221.4z M434.4,229.2
	c-1.7,7.2-4.1,11.6-7.9,17.6c-3.8,6.1-6.6,6.5-11.7,9.6c-5.1,3.2-13.8,4-16.9,4.5c-3.1,0.5-21.2,1.5-32.2-0.9
	c-11-2.4-12.2-5-15.9-9.1c-3.7-4-8.2-12.8-9.3-17.5c-1.1-4.7-1.9-11.4-2.1-14.4c-0.2-3-0.5-6.6,1.5-11.6c2-4.9,7.6-8.6,16.2-10.8
	c8.6-2.2,19.2-2.4,19.2-2.4s14.5-1,21-1.1c6.4-0.1,17.3,0.5,27.7,2.8s12,8.8,12.3,12.4C436.5,212.2,436.1,221.9,434.4,229.2z"/>
<path class="st0" d="M441.4,390.4c29.9-56.7,25.8-71.8,21.8-91c-4.2-20.2-17.3-54.1-16.3-60.6c1-6.5,1-6.5,1-6.5
	c-0.2-1.8-0.2-1.8-0.2-1.8s-10,58.7-11.6,67.6c-1.6,8.9-33.3,27.2-34.9,46.1c-1.6,18.9-15.2,37-36.1,48.2
	c-20.9,11.2-56.1,12.7-75.4,5.4c-19.2-7.3-38.5-22.7-46.1-42.4c-7.6-19.6-19.2-27.7-31.7-36.6c-12.4-8.9-19.2-41.2-23.3-63.6
	c-4-22.3-4.8-35.1-4.8-35.1s-0.1,0.3-0.2,0.8v0c-1.5,6.6-12.1,53.8-21.1,82.4c-3.5,29,24.3,82.2,66.9,129
	c36.1,39.8,74,44.5,84.6,45.1c1,0,1.9,0.1,2.9,0.1c0,0,44.9-6.9,82.9-35.9c0,0,26.6-26,30.1-31.2c2.5-3.9,6.5-10.9,8.4-14.2l0,0h0
	c0.7-1.2,1.1-1.9,1.1-1.9l0.1-0.2l0-0.1c0,0.1-0.1,0.2-0.1,0.3c0.7-1.2,1.3-2.5,2-3.7L441.4,390.4
	C441.4,390.4,441.4,390.4,441.4,390.4z"/>
<path class="st1" d="M448.2,269.4c0,0,11.7,32.3,9.9,47.7c-1.8,15.4-16.8,55.8-18.3,59c-1.5,3.2-9.6,20.8-15.6,27.2
	c-6,6.4-6,6.4-6,6.4s-10.8,9.1-15.6,11c-4.8,2-4.8,2-4.8,2s10.2-39.7,26.5-59.7c16.2-20.1,26.9-37.7,27.3-45.7
	C451.8,309.3,448.2,269.4,448.2,269.4z"/>
<path class="st5" d="M374.2,326.8c-3-1.3-6-1.4-8.9-1.5c-0.9,0-1.8-0.1-2.7-0.1c-4-0.3-7.7-1-10.3-2c-1.7-0.6-3.1-1.4-4.5-2.2
	c-1.3-0.7-2.5-1.3-3.8-1.8c-3.3-1.2-9.3-2.3-15.2-2.2c-3.7,0.1-6.9,0.6-9.1,1.7c-3.6-1.4-8-2-13.1-1.7c-6.2,0.3-10.3,2.1-14.2,4
	c-1.7,0.8-3.4,1.6-5.2,2.3c-3,1.1-6.1,1.7-10.1,2c-0.9,0.1-1.8,0.1-2.7,0.1c-3.1,0.1-6,0.2-8.9,1.5c-2.8,1.3-6.1,4.2-7.9,7.1
	c0,0-3.8,6.7-2.1,9.9c0.3,0.6,1.1,1.4,2.6,1.4c0.1,0,0.2,0,0.3,0c1.8-0.2,3.1-1.7,4.5-3.1c0.7-0.7,1.3-1.3,1.9-1.7
	c3-2.1,7.1-3.3,11.1-3.4c0,0,0,0,0,0c1.6-0.1,3.3,0.1,5,0.2c1.3,0.1,2.7,0.2,4.1,0.2c1.8,0,3.7,0,5.4-0.1
	c10.8-0.4,19.3-1.8,25.4-4.5c0.3-0.1,0.7-0.4,1.7-1.1c0.6-0.4,1.7-1.1,2.3-1.5c0.1,0.1,0.3,0.2,0.4,0.3c0.5,0.4,0.9,0.7,1.2,0.9
	c5.9,3.5,15.9,5.5,28.3,5.9c1.8,0.1,3.6,0.1,5.4,0.1c1.3,0,2.7-0.1,4-0.2c1.6-0.1,3.3-0.3,5-0.2c0,0,0.1,0,0.1,0
	c3.9,0.2,8.5,1.6,11.1,3.4c0.6,0.4,1.2,1,1.8,1.7c1.3,1.4,2.6,2.9,4.4,3.1c0.2,0,0.4,0,0.6,0c2.6-0.2,3.2-1.7,2.4-5.9
	C383.3,333.7,378.4,328.7,374.2,326.8z"/>
</svg>
