<?xml version="1.0" standalone="no"?>
<!DOCTYPE svg PUBLIC "-//W3C//DTD SVG 20010904//EN"
 "http://www.w3.org/TR/2001/REC-SVG-20010904/DTD/svg10.dtd">
<svg version="1.0" xmlns="http://www.w3.org/2000/svg"
 width="400.000000pt" height="300.000000pt" viewBox="0 0 400.000000 300.000000"
 preserveAspectRatio="xMidYMid meet">

<g transform="translate(0.000000,300.000000) scale(0.100000,-0.100000)"
fill="#000000" stroke="none">
<path d="M0 1500 l0 -1500 2000 0 2000 0 0 400 0 400 -97 0 c-89 1 -149 10
-241 39 -45 14 -191 95 -225 126 -16 14 -25 29 -22 35 3 5 0 8 -7 5 -14 -5
-108 114 -108 137 0 7 -9 19 -20 26 -11 7 -17 18 -14 27 4 8 2 15 -3 15 -6 0
-16 19 -23 43 -8 23 -17 47 -20 52 -22 31 -34 226 -20 305 21 116 104 302 125
282 5 -4 5 -2 1 5 -7 12 2 25 62 94 60 69 234 169 318 185 22 3 44 10 49 14 6
4 62 7 125 8 l115 0 3 401 2 401 -2000 0 -1999 0 -1 -1500z m2128 1143 c5 -18
-28 -29 -38 -12 -5 7 -6 17 -3 22 7 12 35 5 41 -10z m815 -389 c9 -10 -4 -34
-18 -34 -17 0 -28 17 -20 30 7 11 28 13 38 4z m-1127 -369 c36 -23 64 -74 64
-115 l-1 -35 -15 27 c-46 86 -136 53 -158 -57 l-12 -60 -62 0 c-43 0 -62 4
-62 13 0 6 5 12 10 12 6 0 10 7 10 15 0 9 7 18 15 21 17 7 21 54 5 54 -18 0
-11 46 13 81 44 66 130 86 193 44z m-51 -164 c3 -5 1 -12 -5 -16 -5 -3 -10 1
-10 9 0 18 6 21 15 7z m-361 -147 c7 -63 6 -67 -18 -58 -29 11 -38 41 -25 79
19 51 35 43 43 -21z m316 41 c179 -19 300 -44 300 -61 0 -7 -8 -29 -17 -49
-15 -32 -18 -34 -38 -21 -11 7 -39 17 -62 20 -38 7 -42 6 -45 -16 -2 -13 -9
-22 -15 -21 -6 1 -51 5 -100 9 -48 4 -95 8 -103 10 -8 1 -31 3 -49 3 -26 1
-32 4 -24 12 9 9 8 15 -2 25 -16 17 -53 18 -91 4 -32 -12 -31 -12 -38 23 -2
15 -7 36 -11 47 -6 17 0 19 62 23 37 2 73 4 78 5 6 1 75 -5 155 -13z m356 -81
c5 -37 3 -47 -12 -59 -24 -18 -33 -18 -40 0 -6 16 26 105 38 105 4 0 10 -20
14 -46z m-238 -87 c6 0 12 -7 12 -15 0 -7 9 -26 19 -41 21 -29 56 -110 50
-115 -5 -4 -119 -34 -179 -46 -47 -11 -75 -7 -66 9 3 5 35 14 71 21 68 13 79
26 51 62 -16 22 -29 12 -16 -13 12 -22 8 -25 -58 -34 -49 -6 -53 -5 -52 11 4
35 0 42 -34 63 -34 21 -41 31 -57 85 l-8 29 127 -8 c70 -4 133 -8 140 -8z
m-548 -57 c0 -21 -24 -28 -35 -10 -8 14 3 30 21 30 8 0 14 -9 14 -20z m648
-152 c-5 -13 -72 -31 -101 -26 -29 5 -20 23 15 29 58 11 90 10 86 -3z m-1384
-1193 c3 -9 -1 -18 -10 -22 -19 -7 -39 11 -30 26 10 16 33 13 40 -4z"/>
</g>
</svg>
